<svg width="105" height="80" viewBox="0 0 105 80" fill="none" xmlns="http://www.w3.org/2000/svg">
<rect y="10" width="60" height="60" rx="30" fill="#3BA1FF"/>
<path d="M103.828 62.6897C104.475 62.6897 105 62.165 105 61.5178V59.7219C105 56.4822 102.933 53.6244 99.8553 52.6103L92.5308 50.2003V47.6644C95.0812 46.1342 96.7923 43.3425 96.7923 40.158V35.1072C96.7923 30.2834 92.868 26.3591 88.0442 26.3591C85.203 26.3591 82.6747 27.7216 81.0756 29.8264C80.1905 28.1653 78.6894 26.8698 76.8102 26.2527L69.4864 23.8414V21.3055C72.0369 19.7753 73.748 16.9836 73.748 13.7991V8.74812C73.7481 3.92437 69.8237 0 65 0C60.1763 0 56.2519 3.92437 56.2519 8.74812V13.7989C56.2519 16.9834 57.963 19.7752 60.5134 21.3053V23.8412L53.1905 26.2523C51.3108 26.8698 49.8095 28.1653 48.9244 29.8264C47.3253 27.7214 44.797 26.3591 41.9558 26.3591C37.132 26.3591 33.2077 30.2834 33.2077 35.1072V40.158C33.2077 43.3425 34.9187 46.1342 37.4692 47.6644V50.2003L30.1441 52.6105C27.0672 53.6244 25 56.4822 25 59.7219V61.5178C25 62.165 25.5245 62.6897 26.1719 62.6897C26.8192 62.6897 27.3438 62.165 27.3438 61.5178V59.7219C27.3438 57.4962 28.7639 55.533 30.877 54.8366L37.7381 52.5789C38.3652 54.3016 40.0189 55.535 41.9556 55.535C43.8922 55.535 45.5459 54.3014 46.173 52.5789L53.0331 54.8362C54.5369 55.3319 55.702 56.4734 56.2409 57.9202L53.1897 58.9244C50.112 59.9372 48.0442 62.7947 48.0442 66.0345V67.3966H33.973V64.4645C33.973 63.8173 33.4484 63.2926 32.8011 63.2926C32.1537 63.2926 31.6292 63.8173 31.6292 64.4645V67.3966H27.3438V66.9919C27.3438 66.3447 26.8192 65.82 26.1719 65.82C25.5245 65.82 25 66.3447 25 66.9919V68.5684C25 69.2156 25.5245 69.7403 26.1719 69.7403H48.0442V78.8278C48.0442 79.475 48.5688 79.9997 49.2161 79.9997H80.7837C81.4311 79.9997 81.9556 79.475 81.9556 78.8278V77.2625C81.9556 76.6153 81.4311 76.0906 80.7837 76.0906C80.1364 76.0906 79.6119 76.6153 79.6119 77.2625V77.6562H75.3266V70.7784C75.3266 70.1312 74.802 69.6066 74.1547 69.6066C73.5073 69.6066 72.9828 70.1312 72.9828 70.7784V77.6562H57.0172V70.7784C57.0172 70.1312 56.4927 69.6066 55.8453 69.6066C55.198 69.6066 54.6734 70.1312 54.6734 70.7784V77.6562H50.388V66.0348C50.388 63.8094 51.8083 61.8466 53.9223 61.1509L60.7827 58.8931C61.4098 60.6155 63.0634 61.8489 65 61.8489C66.9366 61.8489 68.5902 60.6156 69.2173 58.8931L76.0777 61.1509C78.1917 61.8467 79.612 63.8094 79.612 66.0348V71.7914C79.612 72.4386 80.1366 72.9633 80.7839 72.9633C81.4313 72.9633 81.9558 72.4386 81.9558 71.7914V69.7406H103.828C104.475 69.7406 105 69.2159 105 68.5687V66.9922C105 66.345 104.475 65.8203 103.828 65.8203C103.181 65.8203 102.656 66.345 102.656 66.9922V67.3969H98.3708V64.4648C98.3708 63.8177 97.8463 63.293 97.1989 63.293C96.5516 63.293 96.027 63.8177 96.027 64.4648V67.3969H81.9556V66.0348C81.9556 62.7948 79.8878 59.9375 76.8102 58.9247L73.7589 57.9205C74.2978 56.4739 75.4628 55.3323 76.9661 54.8367L83.8269 52.5792C84.4539 54.3017 86.1077 55.5353 88.0442 55.5353C89.9809 55.5353 91.6347 54.3017 92.2617 52.5792L99.1222 54.8367C101.236 55.533 102.656 57.4962 102.656 59.7219V61.5178C102.656 62.165 103.181 62.6897 103.828 62.6897ZM88.0442 28.7027C91.5756 28.7027 94.4486 31.5756 94.4486 35.107V40.1578C94.4486 43.6892 91.5755 46.5622 88.0442 46.5622C84.513 46.5622 81.64 43.6892 81.64 40.1578V35.107C81.64 31.5756 84.513 28.7027 88.0442 28.7027ZM58.5956 13.7989V8.74812C58.5956 5.21672 61.4686 2.34375 65 2.34375C68.5314 2.34375 71.4044 5.21672 71.4044 8.74812V13.7989C71.4044 17.3303 68.5312 20.2033 65 20.2033C61.4688 20.2033 58.5956 17.3303 58.5956 13.7989ZM65 22.547C65.7391 22.547 66.4567 22.4541 67.1428 22.2806V24.6583C67.1425 24.6694 67.1427 24.6803 67.1428 24.6912C67.1419 25.872 66.1811 26.8323 65.0002 26.8323C63.8192 26.8323 62.8583 25.872 62.8575 24.6912C62.8575 24.6802 62.8577 24.6692 62.8575 24.6583V22.2806C63.5433 22.4539 64.2609 22.547 65 22.547ZM53.9227 28.4787L60.7825 26.2202C61.4095 27.9427 63.0633 29.1761 64.9998 29.1761C66.9364 29.1761 68.5902 27.9427 69.2172 26.2202L76.0778 28.4789C78.0367 29.1223 79.3952 30.8378 79.585 32.8772C79.397 33.5894 79.2959 34.3366 79.2959 35.107V40.1578C79.2959 40.4547 79.3111 40.7481 79.3402 41.0375H73.7381C73.5369 36.3909 69.695 32.6723 64.9997 32.6723C60.3044 32.6723 56.4625 36.3909 56.2613 41.0375H50.6592C50.6883 40.7481 50.7034 40.4547 50.7034 40.1578V35.107C50.7034 34.3366 50.6023 33.5895 50.4144 32.8772C50.6045 30.838 51.9631 29.1225 53.9227 28.4787ZM65 52.8756C61.4686 52.8756 58.5956 50.0026 58.5956 46.4712V41.4205C58.5956 37.8891 61.4688 35.0161 65 35.0161C68.5312 35.0161 71.4044 37.8891 71.4044 41.4205V46.4712C71.4044 50.0026 68.5314 52.8756 65 52.8756ZM35.5513 40.1578V35.107C35.5513 31.5756 38.4244 28.7027 41.9556 28.7027C45.4869 28.7027 48.3598 31.5756 48.3598 35.107V40.1578C48.3598 43.6892 45.4869 46.5622 41.9556 46.5622C38.4244 46.5622 35.5513 43.6892 35.5513 40.1578ZM44.0983 51.0486C44.0983 52.2302 43.1372 53.1912 41.9556 53.1912C40.7741 53.1912 39.8128 52.23 39.8128 51.0486V48.6395C40.4988 48.813 41.2164 48.9059 41.9556 48.9059C42.6947 48.9059 43.4123 48.813 44.0983 48.6395V51.0486ZM53.7663 52.6103L46.4422 50.2003V47.6642C48.0811 46.6809 49.3716 45.1761 50.0858 43.3812H56.2519V46.4712C56.2519 49.6558 57.963 52.4475 60.5134 53.9776V56.5141L58.4667 57.1877C57.6969 55.0403 55.9858 53.3419 53.7663 52.6103ZM65 59.505C63.8184 59.505 62.8572 58.5437 62.8572 57.3622V57.348C62.8572 57.3456 62.8572 57.3433 62.8572 57.3411V54.9531C63.5431 55.1266 64.2608 55.2195 65 55.2195C65.7392 55.2195 66.4567 55.1266 67.1428 54.9531V57.3411V57.348V57.3622C67.1428 58.5437 66.1816 59.505 65 59.505ZM76.2333 52.6105C74.0142 53.3419 72.3031 55.0403 71.5334 57.1878L69.4866 56.5142V53.9778C72.037 52.4477 73.7481 49.6559 73.7481 46.4714V43.3812H79.9142C80.6284 45.1762 81.9189 46.6811 83.5578 47.6642V50.2003L76.2333 52.6105ZM88.0442 53.1914C86.8627 53.1914 85.9016 52.2302 85.9016 51.0487V48.6397C86.5875 48.8131 87.3052 48.9061 88.0442 48.9061C88.7833 48.9061 89.5009 48.8131 90.187 48.6397V51.0487C90.187 52.2302 89.2258 53.1914 88.0442 53.1914Z" fill="white"/>
</svg>
